<?xml version="1.0" encoding="utf-8" standalone="no"?>
<!DOCTYPE svg PUBLIC "-//W3C//DTD SVG 1.1//EN" "http://www.w3.org/Graphics/SVG/1.1/DTD/svg11.dtd">
<svg version="1.1" width="612pt" height="792pt" viewBox="0 0 612 792" overflow="visible" xmlns="http://www.w3.org/2000/svg">
  <path d="M323.64,408.78 C323.6759,408.4257 323.2743,408.0241 322.92,408.06 C322.5657,408.0241 322.1641,408.4257 322.2,408.78 C322.1641,409.1343 322.5657,409.5359 322.92,409.5 C323.2743,409.5359 323.6759,409.1343 323.64,408.78 z" stroke="#00FFFF" stroke-width="0.24" fill="none" />
  <path d="M289.8,408.78 C289.8359,408.4257 289.4343,408.0241 289.08,408.06 C288.7257,408.0241 288.3241,408.4257 288.36,408.78 C288.3241,409.1343 288.7257,409.5359 289.08,409.5 C289.4343,409.5359 289.8359,409.1343 289.8,408.78 z" stroke="#FF00FF" stroke-width="0.24" fill="none" />
  <path d="M306.72,359.82 C306.7559,359.4657 306.3543,359.0641 306,359.1 C305.6457,359.0641 305.2441,359.4657 305.28,359.82 C305.2441,360.1743 305.6457,360.5759 306,360.54 C306.3543,360.5759 306.7559,360.1743 306.72,359.82 z" stroke="#0000FF" stroke-width="0.24" fill="none" />
  <path d="M264.3194,433.26 C264.3553,432.9057 263.9537,432.5041 263.5994,432.54 C263.2451,432.5041 262.8435,432.9057 262.8794,433.26 C262.8435,433.6143 263.2451,434.0159 263.5994,433.98 C263.9537,434.0159 264.3553,433.6143 264.3194,433.26 z" stroke="#00FF00" stroke-width="0.24" fill="none" />
  <path d="M349.1206,433.26 C349.1565,432.9057 348.7549,432.5041 348.4006,432.54 C348.0463,432.5041 347.6447,432.9057 347.6806,433.26 C347.6447,433.6143 348.0463,434.0159 348.4006,433.98 C348.7549,434.0159 349.1565,433.6143 349.1206,433.26 z" stroke="#FF0000" stroke-width="0.24" fill="none" />
  <path d="M306.72,408.78 C306.7559,408.4257 306.3543,408.0241 306,408.06 C305.6457,408.0241 305.2441,408.4257 305.28,408.78 C305.2441,409.1343 305.6457,409.5359 306,409.5 C306.3543,409.5359 306.7559,409.1343 306.72,408.78 z" stroke="#000000" stroke-width="0.24" fill="none" />
  <path d="M267.6783,423.1885 L268.345,423.5214 L268.6808,423.6432 L269.0904,423.7899 L274.5206,433.1952 L274.4936,433.381 L274.4222,433.9037 L274.3937,434.2303 L274.394,434.5582 C274.4476,435.6546 274.3616,436.7559 274.118,437.8293 C273.7783,439.3259 273.1507,440.6931 272.2444,441.873 C271.4019,442.97 270.3447,443.8664 269.13,444.5289 C267.8745,445.2136 266.4824,445.636 265.0068,445.7783 L264.5467,445.8132 C263.0678,445.8955 261.5821,445.6901 260.1677,445.2325 C258.5682,444.7148 257.0862,443.8836 255.8002,442.8169 C254.5992,441.8207 253.5757,440.6254 252.7738,439.2961 C251.9739,437.9699 251.3974,436.5148 251.0825,435.0005 C250.747,433.387 250.7109,431.7158 251.0114,430.0923 C251.3041,428.511 251.9125,426.9992 252.8374,425.6758 C253.6753,424.4769 254.7491,423.4677 256.0117,422.7195 C257.2827,421.9663 258.6966,421.5062 260.1707,421.3517 C261.1297,421.2513 262.0965,421.282 263.0485,421.4328 L265.0725,421.9407 z" stroke="#000000" stroke-width="0.24" fill="none" />
  <path d="M342.9747,437.0849 C342.4818,436.7072 342.3908,435.7623 342.8026,435.2976 C343.0049,434.6803 342.8852,434.1808 342.7368,433.6351 C342.5863,433.0818 342.4063,432.4811 340.4368,430.4207 C340.0935,430.1607 339.9543,429.5751 340.1439,429.1885 C340.2899,428.7834 340.8075,428.4762 341.233,428.5421 C343.1109,428.5864 345.488,427.6523 346.0002,426.8053 C346.0318,426.2594 346.5139,425.694 347.0479,425.5764 C347.5686,425.4092 348.2697,425.6553 348.5717,426.1112 C352.6384,430.3357 353.6769,432.6974 354.1568,434.4583 C354.6402,436.2321 354.5567,437.3962 354.365,438.2946 C354.1733,439.193 353.8735,439.8256 353.2337,440.1737 C352.5938,440.5219 351.614,440.5857 350.667,440.6613 C349.7199,440.737 348.8057,440.8245 347.347,440.234 C345.9633,439.6738 344.0897,438.5034 342.9747,437.0849 z" stroke="#000000" stroke-width="0.24" fill="none" />
  <path d="M337.639,434.7633 L337.5939,434.0195 L337.5316,433.6678 L337.4537,433.2397 L342.8839,423.8344 L343.0583,423.7649 L343.5467,423.5653 L343.8438,423.4267 L344.1276,423.2625 C345.0503,422.6678 346.0471,422.1917 347.0984,421.866 C348.5644,421.4119 350.0622,421.2718 351.5372,421.4667 C352.9085,421.6478 354.2133,422.1151 355.3945,422.8359 C356.6152,423.5808 357.6771,424.5753 358.5381,425.782 L358.7983,426.163 C359.6091,427.4026 360.174,428.792 360.4849,430.2457 C360.8364,431.8897 360.8575,433.5887 360.5767,435.2359 C360.3145,436.774 359.7911,438.2581 359.0408,439.6172 C358.2922,440.973 357.3204,442.1998 356.1664,443.2297 C354.9368,444.327 353.5075,445.1939 351.9513,445.7454 C350.4355,446.2826 348.8221,446.5115 347.2135,446.3723 C345.7563,446.2461 344.3454,445.8207 343.0661,445.1014 C341.7784,444.3773 340.6729,443.3828 339.8021,442.1834 C339.2356,441.4032 338.7788,440.5506 338.4334,439.6507 L337.8613,437.6439 z" stroke="#000000" stroke-width="0.24" fill="none" />
  <path d="M262.9999,426.6486 C263.5734,426.4106 264.4372,426.8042 264.6338,427.3932 C265.0672,427.877 265.5597,428.0232 266.1065,428.1674 C266.6609,428.3138 267.2711,428.4582 270.0403,427.7828 C270.437,427.6155 271.0138,427.7878 271.2538,428.1452 C271.5316,428.4742 271.5388,429.0761 271.269,429.4117 C270.2917,431.0157 269.9121,433.5415 270.3895,434.4086 C270.8465,434.7089 271.0952,435.409 270.9299,435.9303 C270.8143,436.4649 270.2507,436.949 269.7049,436.9826 C264.0131,438.3922 261.4485,438.1107 259.6836,437.6459 C257.9056,437.1776 256.9393,436.5232 256.2571,435.908 C255.575,435.2928 255.177,434.7169 255.1954,433.9887 C255.2138,433.2605 255.6485,432.3801 256.0565,431.5221 C256.4645,430.6641 256.8458,429.8285 258.0865,428.8605 C259.2635,427.9423 261.2139,426.9049 262.9999,426.6486 z" stroke="#000000" stroke-width="0.24" fill="none" />
  <path d="M312.6827,368.3882 L312.0611,368.7992 L311.7877,369.029 L311.4559,369.3104 L300.5955,369.3104 L300.4481,369.1941 L300.0312,368.8709 L299.7625,368.683 L299.4784,368.5193 C298.502,368.0175 297.5913,367.3924 296.7836,366.6447 C295.6574,365.6022 294.7871,364.3751 294.2184,363.0003 C293.6896,361.7221 293.4419,360.3584 293.4755,358.9752 C293.5103,357.5455 293.8406,356.1287 294.4552,354.7797 L294.6549,354.3638 C295.3232,353.0419 296.2439,351.8579 297.3474,350.8619 C298.5954,349.7354 300.0563,348.8676 301.6231,348.2873 C303.0863,347.7453 304.6332,347.4565 306.1854,347.4268 C307.7339,347.3971 309.2822,347.6254 310.7511,348.1098 C312.3162,348.626 313.7816,349.4303 315.0373,350.5023 C316.2604,351.5464 317.2654,352.8293 317.9491,354.2919 C318.5685,355.617 318.9055,357.0515 318.9222,358.5191 C318.939,359.9964 318.6305,361.451 318.0272,362.8048 C317.6347,363.6856 317.1248,364.5074 316.5181,365.2565 L315.0662,366.7554 z" stroke="#000000" stroke-width="0.24" fill="none" />
  <path d="M312.0254,362.6065 C311.9448,363.2222 311.172,363.7735 310.5636,363.6492 C309.9279,363.7826 309.5551,364.1361 309.1567,364.5375 C308.7529,364.9444 308.3227,365.4007 307.5229,368.1365 C307.4695,368.5638 307.0319,368.9771 306.6023,369.0063 C306.1785,369.0824 305.6537,368.7877 305.498,368.3862 C304.5974,366.7379 302.5999,365.1462 301.6103,365.1261 C301.1217,365.3717 300.391,365.237 300.0222,364.8332 C299.617,364.4659 299.4796,363.7357 299.7234,363.2462 C301.3485,357.6122 302.8746,355.5319 304.1596,354.2359 C305.4541,352.9303 306.5041,352.4206 307.3779,352.1374 C308.2517,351.8542 308.9495,351.7976 309.5709,352.1776 C310.1924,352.5576 310.7375,353.3743 311.2766,354.1566 C311.8156,354.9389 312.3485,355.687 312.5665,357.2455 C312.7732,358.7239 312.6964,360.9317 312.0254,362.6065 z" stroke="#000000" stroke-width="0.24" fill="none" />
  <path d="M322.3307,418.2085 L342.2451,429.7061" stroke="#7FFF00" stroke-width="0.24" fill="none" />
  <path d="M289.6694,418.2085 L269.755,429.7061" stroke="#7FFF00" stroke-width="0.24" fill="none" />
  <path d="M306,389.923 L306,366.9279" stroke="#7FFF00" stroke-width="0.24" fill="none" />
  <path d="M359.6243,450.54 L368.9774,434.34 L315.3531,341.46 L296.6469,341.46 L243.0227,434.34 L252.3757,450.54 z" stroke="#BF3F3F" stroke-width="0.24" fill="none" />
  <path d="M283.6039,402.9983 L291.5287,397.4702 L300.524,408.78 L293.8132,418.5494 L284.4969,414.8373 z" stroke="#0000FF" stroke-width="0.24" fill="none" />
  <path d="M324.9,413.9568 L323.8114,413.9568 L323.8114,403.7832 L324.9,403.7832 z" stroke="#0000FF" stroke-width="0.24" fill="none" />
  <path d="M287.1,403.6032 L288.1887,403.6032 L288.1887,413.7768 L287.1,413.7768 z" stroke="#0000FF" stroke-width="0.24" fill="none" />
  <path d="M328.3961,414.5618 L320.4713,420.0899 L311.4761,408.78 L318.1869,399.0107 L327.5032,402.7227 z" stroke="#0000FF" stroke-width="0.24" fill="none" />
  <path d="M324.8568,408.87 C324.9947,404.4721 323.0238,399.1711 319.3974,395.5099 C315.771,391.8487 310.489,389.8273 306.09,389.9232 C301.6921,389.7853 296.3911,391.7562 292.7299,395.3826 C289.0687,399.009 287.0473,404.291 287.1432,408.69 C287.0053,413.0879 288.9762,418.3889 292.6026,422.0501 C296.229,425.7113 301.511,427.7327 305.91,427.6368 C310.3079,427.7747 315.6089,425.8038 319.2701,422.1774 C322.9313,418.551 324.9527,413.269 324.8568,408.87 z" stroke="#FFBF00" stroke-width="0.24" fill="none" />
  <path d="M322.92,408.78 C323.0249,404.8333 321.2338,400.0853 317.9642,396.8158 C314.6947,393.5462 309.9467,391.7551 306,391.86 C302.0533,391.7551 297.3053,393.5462 294.0358,396.8158 C290.7662,400.0853 288.9751,404.8333 289.08,408.78 C288.9751,412.7267 290.7662,417.4747 294.0358,420.7442 C297.3053,424.0138 302.0533,425.8049 306,425.7 C309.9467,425.8049 314.6947,424.0138 317.9642,420.7442 C321.2338,417.4747 323.0249,412.7267 322.92,408.78 z" stroke="#FFBF00" stroke-width="0.24" fill="none" />
  <path d="M263.5994,433.26 L306,359.82 L348.4006,433.26 z" stroke="#FF7F00" stroke-width="0.24" fill="none" />
  <path d="M289.08,408.78 L322.92,408.78" stroke="#00FFFF" stroke-width="0.24" fill="none" />
</svg>