<?xml version="1.0" encoding="UTF-8"?><svg xmlns="http://www.w3.org/2000/svg" viewBox="0 0 496.88 430.45"><defs><style>.cls-1{fill:#fffd90;}.cls-1,.cls-2,.cls-3,.cls-4,.cls-5,.cls-6,.cls-7,.cls-8{stroke-linecap:round;stroke-linejoin:round;}.cls-1,.cls-2,.cls-3,.cls-5,.cls-7{stroke:#000;}.cls-3{fill:#4d4d4d;}.cls-4{fill:#fff;stroke:#ccc;stroke-dasharray:0 2;}.cls-9{fill:gray;}.cls-10{fill:#c8c8c8;}.cls-5{stroke-width:3px;}.cls-5,.cls-6,.cls-11,.cls-8{fill:none;}.cls-6{stroke:gray;stroke-dasharray:0 0 8 8;}.cls-7{fill:#fffdc6;}.cls-11{stroke:#c8c8c8;stroke-dasharray:0 0 4 4;stroke-miterlimit:10;stroke-width:.5px;}.cls-8{stroke:#999;}</style></defs><g id="geometry_diagram::plinth_edge"><polygon class="cls-4" points="459.56 429.95 496.38 366.17 285.27 .5 211.62 .5 .5 366.17 37.32 429.95 459.56 429.95"/></g><g id="geometry_diagram::female_outlines"><path class="cls-7" d="M274.75,106.52c-.8,.42-1.65,.98-2.45,1.62-.08,.07-.27,.22-.32,.26-.26,.22-.51,.43-.76,.64-.44,.37-.88,.74-1.31,1.11h-42.76c-.19-.15-.39-.31-.58-.46-.56-.44-1.11-.86-1.64-1.27-.36-.28-.72-.52-1.06-.74-.42-.27-.79-.48-1.12-.64-3.84-1.98-7.43-4.44-10.61-7.38-4.43-4.1-7.86-8.94-10.1-14.35-2.08-5.03-3.06-10.4-2.92-15.85,.14-5.63,1.44-11.21,3.86-16.52,.25-.55,.51-1.1,.79-1.64,2.63-5.2,6.26-9.87,10.6-13.79,4.91-4.43,10.66-7.85,16.83-10.14,5.76-2.13,11.85-3.27,17.96-3.39,6.1-.12,12.19,.78,17.98,2.69,6.16,2.03,11.93,5.2,16.87,9.42,4.82,4.11,8.77,9.16,11.46,14.92,2.44,5.22,3.77,10.86,3.83,16.64,.07,5.82-1.15,11.54-3.52,16.87-1.55,3.47-3.55,6.7-5.94,9.65-1.73,2.13-3.64,4.1-5.72,5.9-2.89,2.5-6.04,4.65-9.38,6.43Z"/><path class="cls-7" d="M373.01,367.84c.03-.9-.02-1.92-.18-2.93-.02-.11-.06-.35-.07-.4-.06-.33-.12-.66-.18-.98-.1-.57-.21-1.13-.31-1.68,7.13-12.34,14.25-24.69,21.38-37.03,.23-.09,.46-.18,.69-.27,.66-.27,1.3-.53,1.92-.79,.42-.18,.81-.36,1.17-.55,.44-.23,.81-.45,1.12-.65,3.63-2.34,7.56-4.22,11.7-5.5,5.77-1.79,11.67-2.34,17.48-1.57,5.4,.71,10.54,2.55,15.19,5.39,4.81,2.93,8.99,6.85,12.38,11.6,.35,.49,.69,.99,1.02,1.5,3.19,4.88,5.42,10.35,6.64,16.07,1.38,6.47,1.47,13.16,.36,19.65-1.03,6.06-3.09,11.9-6.05,17.25-2.95,5.34-6.77,10.17-11.32,14.22-4.84,4.32-10.47,7.73-16.59,9.9-5.97,2.11-12.32,3.02-18.65,2.47-5.74-.5-11.29-2.17-16.33-5-5.07-2.85-9.42-6.77-12.85-11.49-2.23-3.07-4.03-6.43-5.39-9.97-.98-2.56-1.73-5.21-2.25-7.9-.73-3.75-1-7.56-.87-11.34Z"/><path class="cls-7" d="M97.57,322.27c.77,.48,1.67,.94,2.62,1.31,.1,.04,.33,.12,.38,.14,.32,.11,.63,.23,.94,.34,.55,.2,1.08,.39,1.61,.58,7.13,12.34,14.25,24.69,21.38,37.03-.04,.25-.07,.49-.11,.73-.1,.71-.19,1.39-.28,2.06-.06,.45-.09,.88-.11,1.29-.02,.5-.02,.92,0,1.29,.21,4.32-.13,8.65-1.09,12.88-1.34,5.89-3.81,11.27-7.38,15.92-3.32,4.32-7.48,7.85-12.26,10.46-4.94,2.7-10.42,4.36-16.23,4.92-.6,.06-1.21,.1-1.81,.14-5.82,.32-11.67-.48-17.24-2.29-6.3-2.04-12.13-5.31-17.2-9.51-4.73-3.92-8.76-8.63-11.91-13.86-3.15-5.22-5.42-10.95-6.66-16.91-1.32-6.35-1.46-12.93-.28-19.32,1.15-6.23,3.55-12.18,7.19-17.39,3.3-4.72,7.53-8.69,12.5-11.64,5-2.97,10.57-4.78,16.37-5.38,3.78-.4,7.58-.27,11.33,.32,2.71,.43,5.38,1.1,7.97,2,3.61,1.25,7.05,2.91,10.26,4.91Z"/><path class="cls-1" d="M394.01,376.98c-1.75-1.59-2.22-4.16-1.15-6.27,.12-.24,.26-.47,.41-.68,.02-.03,.04-.05,.06-.08,0-.01,0-.02,.01-.04v-.03s.04-.09,.05-.14c.03-.09,.05-.18,.08-.27,.09-.35,.16-.7,.21-1.06,.09-.67,.09-1.33,.02-2-.07-.65-.2-1.29-.35-1.93-.13-.54-.37-1.45-.54-1.98-.29-.89-.68-1.71-1.16-2.52-.35-.6-.74-1.17-1.15-1.74-.55-.76-1.13-1.49-1.72-2.21-1.11-1.34-2.26-2.62-3.44-3.89-.36-.39-.73-.78-1.1-1.17-.08-.08-.16-.18-.24-.25-.03-.03-.07-.06-.1-.09-.07-.06-.13-.12-.19-.19-.26-.28-.48-.57-.66-.91-.74-1.37-.67-3.02,.19-4.32,.43-.65,1.03-1.17,1.73-1.49,.35-.17,.72-.28,1.1-.34,.18-.03,.37-.05,.56-.05,.09,0,.18,0,.27,0,.09,0,.18,.02,.27,.02,1.76,.04,3.47-.12,5.19-.42,2.19-.38,4.44-1,6.52-1.8,1.73-.67,3.58-1.55,5.1-2.65,.59-.43,1.13-.88,1.59-1.45,.1-.12,.19-.24,.27-.36,.02-.03,.04-.06,.06-.09l.03-.05s0-.05,.01-.08c.01-.11,.03-.23,.05-.34,.09-.48,.23-.93,.43-1.37,.84-1.8,2.57-3.03,4.55-3.22,1.91-.19,3.79,.61,4.97,2.13,.03,.04,.07,.09,.1,.13,.02,.03,.05,.05,.07,.08l.11,.12c.08,.08,.15,.16,.23,.24,.3,.31,.6,.63,.89,.94,.57,.61,1.15,1.22,1.71,1.83,1.06,1.15,2.1,2.31,3.13,3.48,1.79,2.04,3.52,4.13,5.18,6.28,1.58,2.04,3.07,4.13,4.46,6.31,1.11,1.74,2.13,3.51,3.05,5.35,1.39,2.78,2.42,5.51,3.22,8.51,.72,2.72,1.23,5.49,1.33,8.31,.07,2.03-.08,4.01-.47,6-.29,1.48-.69,3.05-1.35,4.43-.57,1.19-1.34,2.22-2.43,3-1.27,.91-2.83,1.37-4.31,1.66-1.75,.35-3.69,.52-5.46,.66-.94,.08-1.88,.16-2.83,.22-.97,.06-1.94,.1-2.91,.07-2.42-.07-4.68-.53-6.95-1.32-1.58-.55-3.09-1.22-4.58-1.97-1.74-.88-3.42-1.86-5.05-2.93-3.28-2.17-6.63-4.93-9.09-8.06Z"/><path class="cls-1" d="M79.15,335.89c2.26-.72,4.71,.15,6.01,2.14,.15,.22,.27,.46,.38,.7,.01,.03,.03,.06,.04,.09,0,.01,.02,.02,.02,.03l.02,.03s.07,.07,.1,.11c.07,.07,.13,.14,.2,.2,.26,.26,.53,.49,.81,.71,.54,.41,1.11,.74,1.72,1.02,.6,.27,1.22,.48,1.85,.66,.53,.16,1.44,.4,1.99,.52,.92,.2,1.82,.27,2.76,.26,.7,0,1.39-.06,2.08-.13,.93-.1,1.85-.23,2.77-.39,1.71-.29,3.4-.65,5.09-1.04,.52-.12,1.04-.24,1.56-.37,.11-.03,.23-.05,.34-.09,.04-.01,.08-.03,.13-.04,.09-.03,.17-.05,.26-.07,.37-.09,.74-.13,1.12-.12,1.55,.04,2.95,.94,3.65,2.32,.35,.7,.5,1.47,.43,2.25-.03,.39-.12,.76-.26,1.12-.07,.17-.14,.34-.23,.51-.04,.08-.09,.16-.14,.24-.05,.08-.1,.15-.15,.22-.91,1.5-1.63,3.07-2.23,4.71-.77,2.09-1.35,4.35-1.7,6.55-.29,1.83-.45,3.88-.25,5.74,.08,.72,.2,1.42,.46,2.1,.05,.14,.11,.28,.18,.42,.02,.03,.03,.06,.05,.1l.03,.05s.04,.03,.06,.05c.09,.07,.18,.14,.27,.22,.37,.31,.69,.66,.97,1.06,1.14,1.63,1.34,3.74,.52,5.55-.79,1.75-2.43,2.97-4.33,3.24-.05,0-.11,.01-.16,.02-.04,0-.07,.02-.11,.02l-.16,.04c-.11,.03-.21,.05-.32,.08-.42,.1-.84,.2-1.26,.31-.81,.19-1.63,.38-2.44,.57-1.52,.34-3.05,.67-4.58,.97-2.66,.53-5.33,.99-8.03,1.35-2.56,.34-5.12,.59-7.7,.71-2.06,.09-4.1,.09-6.16-.03-3.1-.19-5.99-.66-8.98-1.47-2.71-.73-5.37-1.68-7.86-3.01-1.79-.96-3.43-2.08-4.96-3.41-1.14-.99-2.3-2.13-3.16-3.39-.74-1.09-1.25-2.27-1.39-3.6-.16-1.55,.23-3.13,.71-4.56,.57-1.69,1.4-3.46,2.16-5.06,.41-.85,.81-1.71,1.22-2.56,.43-.87,.88-1.73,1.39-2.56,1.27-2.06,2.8-3.78,4.62-5.36,1.26-1.09,2.6-2.07,4-2.98,1.63-1.07,3.32-2.03,5.06-2.9,3.52-1.76,7.58-3.27,11.52-3.84Z"/><path class="cls-1" d="M272.16,83.75c-.5,2.31-2.49,4-4.86,4.13-.27,.01-.53,0-.8-.02-.03,0-.06,0-.1-.01-.01,0-.02,0-.04,0h-.04s-.09,.03-.14,.04c-.09,.02-.18,.04-.28,.07-.35,.09-.69,.21-1.02,.35-.62,.26-1.19,.59-1.74,.98-.53,.39-1.02,.82-1.5,1.27-.4,.38-1.07,1.05-1.44,1.46-.63,.69-1.14,1.45-1.6,2.26-.34,.61-.64,1.23-.93,1.86-.38,.85-.73,1.72-1.05,2.59-.6,1.62-1.14,3.27-1.65,4.93-.16,.51-.31,1.02-.46,1.54-.03,.11-.07,.23-.1,.34,0,.04-.02,.09-.03,.13-.02,.09-.04,.18-.07,.26-.11,.37-.26,.7-.46,1.03-.81,1.32-2.29,2.09-3.84,2-.78-.05-1.52-.31-2.16-.75-.32-.22-.6-.48-.85-.78-.12-.14-.23-.3-.32-.46-.05-.08-.09-.16-.14-.24-.04-.08-.08-.16-.12-.24-.84-1.54-1.84-2.94-2.96-4.29-1.43-1.71-3.09-3.35-4.82-4.74-1.44-1.16-3.13-2.33-4.84-3.09-.66-.29-1.33-.53-2.05-.65-.15-.02-.3-.04-.45-.05-.04,0-.07,0-.11,0h-.05s-.05,.02-.07,.03c-.11,.05-.21,.09-.32,.13-.46,.16-.92,.27-1.4,.31-1.98,.18-3.91-.71-5.06-2.33-1.12-1.56-1.36-3.59-.64-5.37,.02-.05,.04-.1,.06-.15,.01-.03,.02-.07,.03-.1l.05-.16c.03-.11,.06-.21,.09-.32,.12-.42,.24-.83,.37-1.24,.24-.8,.48-1.6,.73-2.4,.46-1.49,.95-2.98,1.45-4.45,.88-2.57,1.81-5.11,2.85-7.62,.98-2.39,2.04-4.73,3.23-7.02,.95-1.83,1.97-3.6,3.11-5.32,1.71-2.59,3.56-4.85,5.76-7.05,1.99-1.99,4.14-3.81,6.54-5.31,1.72-1.08,3.51-1.93,5.44-2.59,1.42-.49,2.99-.93,4.51-1.04,1.32-.1,2.59,.05,3.81,.6,1.42,.64,2.6,1.76,3.59,2.9,1.18,1.34,2.29,2.94,3.3,4.4,.54,.78,1.08,1.55,1.6,2.34,.54,.81,1.06,1.63,1.52,2.49,1.15,2.13,1.88,4.32,2.33,6.68,.31,1.64,.49,3.29,.58,4.95,.11,1.95,.1,3.89-.02,5.84-.24,3.93-.96,8.2-2.44,11.9Z"/></g><g id="geometry_diagram::male_outlines"><polygon class="cls-3" points="160.27 242.78 191.47 221.01 226.88 265.54 200.46 304 163.78 289.39 160.27 242.78"/><polygon class="cls-3" points="336.62 288.3 305.42 310.07 270 265.54 296.42 227.08 333.1 241.69 336.62 288.3"/><rect class="cls-3" x="174.03" y="245.16" width="4.29" height="40.05"/><rect class="cls-3" x="318.57" y="245.87" width="4.29" height="40.05"/></g><g id="geometry_diagram::male_path"><g><path class="cls-6" d="M256.58,331.66c5.6-.69,11.11-2.09,16.38-4.18,8.46-3.35,16.15-8.4,22.58-14.83,6.44-6.44,11.48-14.12,14.83-22.58,3.09-7.81,4.68-16.12,4.68-24.52,0-8.4-1.58-16.71-4.68-24.52-3.35-8.46-8.4-16.15-14.83-22.58-6.44-6.44-14.12-11.48-22.58-14.83-7.81-3.09-16.12-4.68-24.52-4.68-8.4,0-16.71,1.58-24.52,4.68-8.46,3.35-16.15,8.4-22.58,14.83-6.44,6.44-11.48,14.12-14.83,22.58-3.09,7.81-4.68,16.12-4.68,24.52,0,8.4,1.58,16.71,4.68,24.52,3.35,8.46,8.4,16.15,14.83,22.58,6.44,6.44,14.12,11.48,22.58,14.83,5.27,2.09,10.77,3.49,16.38,4.18"/><path class="cls-9" d="M258.36,331.36l1.9-3.77-.13-.07-5.67,2.79c-2,.61-4.01,1.22-6.01,1.83,2.08,.29,4.15,.57,6.23,.86l6.04,1.86,.12-.07-2.47-3.44Z"/><path class="cls-9" d="M238.53,331.36l-1.9-3.77,.13-.07,5.67,2.79c2,.61,4.01,1.22,6.01,1.83-2.08,.29-4.15,.57-6.23,.86l-6.04,1.86-.12-.07,2.47-3.44Z"/></g></g><g id="geometry_diagram::base_triangle"><polygon class="cls-8" points="81.51 361.92 248.44 72.78 415.37 361.92 81.51 361.92"/></g><g id="geometry_diagram::reinforcement_positions"><g><line class="cls-11" x1="248.44" y1="187.22" x2="248.44" y2="104.84"/><path class="cls-10" d="M248.44,186.33l-1.8-1.1-.04,.06,1.17,2.94c.23,1.02,.45,2.05,.68,3.07,.23-1.02,.45-2.05,.68-3.07l1.17-2.94-.03-.06-1.81,1.1Z"/><path class="cls-10" d="M248.44,105.74l-1.8,1.1-.04-.06,1.17-2.94c.23-1.02,.45-2.05,.68-3.07,.23,1.02,.45,2.05,.68,3.07l1.17,2.94-.03,.06-1.81-1.1Z"/></g><g><line class="cls-11" x1="316.27" y1="304.7" x2="387.61" y2="345.89"/><path class="cls-10" d="M317.04,305.15l1.85-1.01-.03-.07-3.13-.46c-1-.32-2-.63-3-.95,.77,.71,1.55,1.41,2.32,2.12l1.96,2.48h.07l-.04-2.11Z"/><path class="cls-10" d="M386.83,345.44l-.05-2.11h.07l1.96,2.47c.77,.71,1.55,1.41,2.32,2.12-1-.32-2-.63-3-.95l-3.13-.46-.04-.06,1.85-1.02Z"/></g><g><line class="cls-11" x1="180.62" y1="304.7" x2="109.28" y2="345.89"/><path class="cls-10" d="M179.84,305.15l-.05,2.11h.07l1.96-2.47c.77-.71,1.55-1.41,2.32-2.12-1,.32-2,.63-3,.95l-3.13,.46-.04,.06,1.85,1.02Z"/><path class="cls-10" d="M110.05,345.44l1.85,1.01-.03,.07-3.13,.46c-1,.32-2,.63-3,.95,.77-.71,1.55-1.41,2.32-2.12l1.96-2.48h.07l-.04,2.11Z"/></g></g><g id="geometry_diagram::bar"><line class="cls-5" x1="181.83" y1="265.54" x2="315.06" y2="265.54"/></g><g id="geometry_diagram::nodes"><circle class="cls-2" cx="248.44" cy="265.54" r="2.83"/><path class="cls-2" d="M184.66,265.54c0-1.57-1.27-2.83-2.83-2.83s-2.83,1.27-2.83,2.83,1.27,2.83,2.83,2.83,2.83-1.27,2.83-2.83Z"/><path class="cls-2" d="M317.89,265.54c0-1.57-1.27-2.83-2.83-2.83s-2.83,1.27-2.83,2.83,1.27,2.83,2.83,2.83,2.83-1.27,2.83-2.83Z"/><path class="cls-2" d="M418.21,361.92c0-1.57-1.27-2.83-2.83-2.83s-2.83,1.27-2.83,2.83,1.27,2.83,2.83,2.83,2.83-1.27,2.83-2.83Z"/><path class="cls-2" d="M251.28,72.78c0-1.57-1.27-2.83-2.83-2.83s-2.83,1.27-2.83,2.83,1.27,2.83,2.83,2.83,2.83-1.27,2.83-2.83Z"/><path class="cls-2" d="M84.35,361.92c0-1.57-1.27-2.83-2.83-2.83s-2.83,1.27-2.83,2.83,1.27,2.83,2.83,2.83,2.83-1.27,2.83-2.83Z"/></g></svg>